<svg width="18" height="17" viewBox="0 0 18 17" fill="none" xmlns="http://www.w3.org/2000/svg">
<path d="M9.06442 16.4336C13.4919 16.4336 17.0811 12.8508 17.0811 8.43116C17.0811 4.01154 13.4919 0.428738 9.06442 0.428738C4.63696 0.428738 1.04779 4.01154 1.04779 8.43116C1.04779 12.8508 4.63696 16.4336 9.06442 16.4336Z" stroke="white" stroke-width="0.8" stroke-miterlimit="10" stroke-linecap="round" stroke-linejoin="round"/>
<path fill-rule="evenodd" clip-rule="evenodd" d="M13.5595 5.73007C13.7691 5.93935 13.7691 6.27865 13.5595 6.48792L8.5491 11.4894C8.33945 11.6987 7.99955 11.6987 7.78991 11.4894L4.92683 8.63143C4.71718 8.42215 4.71718 8.08285 4.92683 7.87358C5.13647 7.66431 5.47637 7.66431 5.68602 7.87358L8.1695 10.3527L12.8003 5.73007C13.0099 5.5208 13.3498 5.5208 13.5595 5.73007Z" fill="white"/>
</svg>
