<svg width="28" height="28" viewBox="0 0 28 28" fill="none" xmlns="http://www.w3.org/2000/svg">
<path d="M16.5667 3.35413C15.1356 3.35413 13.7632 3.92261 12.7513 4.93453C11.7394 5.94644 11.1709 7.3189 11.1709 8.74996V11.7541H8.28337C8.1384 11.7541 8.02087 11.8717 8.02087 12.0166V15.9833C8.02087 16.1283 8.1384 16.2458 8.28337 16.2458H11.1709V24.3833C11.1709 24.5283 11.2884 24.6458 11.4334 24.6458H15.4C15.545 24.6458 15.6625 24.5283 15.6625 24.3833V16.2458H18.5756C18.6961 16.2458 18.8011 16.1638 18.8303 16.047L19.8219 12.0803C19.8634 11.9146 19.7381 11.7541 19.5673 11.7541H15.6625V8.74996C15.6625 8.51016 15.7578 8.28018 15.9274 8.11062C16.0969 7.94105 16.3269 7.84579 16.5667 7.84579H19.6C19.745 7.84579 19.8625 7.72827 19.8625 7.58329V3.61663C19.8625 3.47165 19.745 3.35413 19.6 3.35413H16.5667Z" fill="white"/>
</svg>
