<svg width="28" height="28" viewBox="0 0 28 28" fill="none" xmlns="http://www.w3.org/2000/svg">
<path d="M14 10.2083C11.9059 10.2083 10.2083 11.9059 10.2083 14C10.2083 16.0941 11.9059 17.7916 14 17.7916C16.094 17.7916 17.7916 16.0941 17.7916 14C17.7916 11.9059 16.094 10.2083 14 10.2083Z" fill="white"/>
<path fill-rule="evenodd" clip-rule="evenodd" d="M7.89776 3.59502C11.9206 3.14541 16.0794 3.14541 20.1022 3.59502C22.317 3.84255 24.1034 5.58763 24.3633 7.81019C24.8443 11.9227 24.8443 16.0772 24.3633 20.1898C24.1034 22.4123 22.317 24.1574 20.1022 24.4049C16.0794 24.8545 11.9206 24.8545 7.89776 24.4049C5.68297 24.1574 3.89657 22.4123 3.63662 20.1898C3.15563 16.0772 3.15563 11.9227 3.63662 7.81019C3.89657 5.58763 5.68297 3.84255 7.89776 3.59502ZM19.8333 6.99997C19.189 6.99997 18.6666 7.52231 18.6666 8.16664C18.6666 8.81097 19.189 9.33331 19.8333 9.33331C20.4776 9.33331 21 8.81097 21 8.16664C21 7.52231 20.4776 6.99997 19.8333 6.99997ZM8.4583 14C8.4583 10.9394 10.9394 8.45831 14 8.45831C17.0605 8.45831 19.5416 10.9394 19.5416 14C19.5416 17.0606 17.0605 19.5416 14 19.5416C10.9394 19.5416 8.4583 17.0606 8.4583 14Z" fill="white"/>
</svg>
