<svg width="28" height="28" viewBox="0 0 28 28" fill="none" xmlns="http://www.w3.org/2000/svg">
<path d="M25.4447 7.26507C25.5123 7.17084 25.4125 7.04917 25.3043 7.09108C24.5358 7.38897 23.7326 7.58995 22.9134 7.68899C23.8256 7.14402 24.5295 6.31442 24.9199 5.33225C24.9596 5.2322 24.8504 5.14284 24.7561 5.19489C23.9083 5.66312 22.9939 6.00028 22.0441 6.19446C22.0043 6.20259 21.9633 6.18905 21.9354 6.1596C21.2226 5.40748 20.2843 4.9067 19.2615 4.73365C18.2171 4.55697 17.1437 4.73191 16.2095 5.23105C15.2752 5.73018 14.5331 6.52528 14.0995 7.49164C13.6872 8.41045 13.5759 9.43468 13.7793 10.4183C13.7951 10.4947 13.7353 10.5667 13.6575 10.5619C11.8095 10.4471 10.0038 9.95554 8.3518 9.11683C6.70398 8.28025 5.2448 7.11642 4.06311 5.69714C4.01067 5.63415 3.91127 5.6423 3.87306 5.71481C3.50536 6.41256 3.31284 7.19025 3.31337 7.98066C3.31187 8.76744 3.50495 9.54238 3.87541 10.2365C4.24587 10.9306 4.78222 11.5223 5.4367 11.959C4.74262 11.9401 4.06207 11.7685 3.44316 11.4574C3.36339 11.4173 3.26772 11.4744 3.27187 11.5636C3.32013 12.601 3.70099 13.6425 4.36023 14.4416C5.06177 15.292 6.0355 15.8739 7.1167 16.089C6.7005 16.2157 6.26839 16.2824 5.83337 16.2873C5.5966 16.2846 5.3603 16.2671 5.12582 16.235C5.03889 16.2231 4.9679 16.3057 4.99833 16.388C5.32082 17.2601 5.89053 18.0211 6.63962 18.5765C7.44048 19.1704 8.40654 19.4998 9.40337 19.519C7.7201 20.8435 5.6419 21.5663 3.50003 21.5723C3.27995 21.573 3.05996 21.5659 2.84049 21.551C2.71682 21.5425 2.65994 21.7073 2.76654 21.7706C4.85344 23.009 7.23872 23.6636 9.6717 23.6607C11.468 23.6793 13.25 23.3398 14.9137 22.6621C16.5773 21.9843 18.0892 20.9819 19.3611 19.7132C20.633 18.4446 21.6393 16.9353 22.3213 15.2734C23.0034 13.6115 23.3474 11.8303 23.3334 10.034V9.47419C23.3334 9.43736 23.3508 9.40272 23.3802 9.38052C24.1715 8.78303 24.8674 8.06968 25.4447 7.26507Z" fill="white"/>
</svg>
