<svg width="226" height="204" viewBox="0 0 226 204" fill="none" xmlns="http://www.w3.org/2000/svg">
<path d="M34.25 158.25H180.5C205.353 158.25 225.5 138.103 225.5 113.25C225.5 92.1432 210.969 74.4305 191.365 69.5703C191.619 67.2904 191.75 64.973 191.75 62.625C191.75 28.4524 164.048 0.75 129.875 0.75C101.531 0.75 77.6388 19.8079 70.3126 45.8084C69.5466 45.7696 68.7756 45.75 68 45.75C43.1472 45.75 23 65.8972 23 90.75C23 91.3887 23.0133 92.0243 23.0397 92.6565C9.91051 97.2784 0.5 109.79 0.5 124.5C0.5 143.14 15.6104 158.25 34.25 158.25Z" fill="#E0A12E"/>
<path d="M34.25 180.75C28.0368 180.75 23 185.787 23 192C23 198.213 28.0368 203.25 34.25 203.25H191.75C197.963 203.25 203 198.213 203 192C203 185.787 197.963 180.75 191.75 180.75H34.25Z" fill="#E0A12E"/>
</svg>
