<svg width="270" height="180" viewBox="0 0 270 180" fill="none" xmlns="http://www.w3.org/2000/svg">
<path d="M213.75 180H33.75C15.1104 180 0 164.89 0 146.25C0 131.357 9.64618 118.717 23.0315 114.238C22.6813 111.834 22.5 109.376 22.5 106.875C22.5 78.9155 45.1656 56.2499 73.125 56.2499C75.6578 56.2499 78.1472 56.4359 80.5802 56.795C87.999 24.2704 117.103 -6.10352e-05 151.875 -6.10352e-05C190.74 -6.10352e-05 222.524 30.3203 224.862 68.5974C250.606 73.7557 270 96.488 270 123.75C270 154.816 244.816 180 213.75 180Z" fill="#E0A12E"/>
</svg>
