<svg width="270" height="270" viewBox="0 0 270 270" fill="none" xmlns="http://www.w3.org/2000/svg">
<g clip-path="url(#clip0_1_1012)">
<path d="M34.95 24L37.875 26.925C40.8 29.775 40.8 34.575 37.875 37.425L37.8 37.5C34.875 40.425 30.225 40.425 27.3 37.5L24.375 34.575C21.45 31.725 21.45 27 24.375 24.075L24.45 24C27.3 21.15 32.025 21.075 34.95 24Z" fill="#E0A12E"/>
<path d="M7.425 74.625H15.075C19.2 74.625 22.5 77.925 22.5 82.125V82.2C22.5 86.325 19.2 89.625 15 89.55H7.425C3.3 89.55 0 86.25 0 82.125V82.05C0 77.925 3.3 74.625 7.425 74.625Z" fill="#E0A12E"/>
<path d="M82.5 0H82.575C86.7 0 90 3.3 90 7.425V14.7C90 18.825 86.7 22.125 82.5 22.05H82.425C78.3 22.05 75 18.75 75 14.625V7.425C75 3.3 78.3 0 82.5 0Z" fill="#E0A12E"/>
<path d="M130.05 24C132.975 21.15 137.7 21.15 140.625 24.075C143.55 27 143.55 31.65 140.625 34.575L137.7 37.5C134.85 40.425 130.125 40.425 127.2 37.5L127.125 37.425C124.2 34.575 124.2 29.85 127.125 26.925L130.05 24Z" fill="#E0A12E"/>
<path d="M37.5 82.125C37.5 57.3 57.675 37.125 82.5 37.125C99.5398 37.125 114.389 46.6303 122.026 60.6202C113.318 68.3632 106.811 78.5282 103.563 90.0584C102.797 90.0196 102.026 90 101.25 90C81.541 90 64.7913 102.671 58.7022 120.31C45.9768 112.354 37.5 98.2166 37.5 82.125Z" fill="#E0A12E"/>
<path d="M34.95 140.175C32.025 143.1 27.3 143.1 24.375 140.175C21.45 137.25 21.45 132.6 24.3 129.6L27.225 126.675C30.15 123.75 34.875 123.75 37.8 126.675L37.875 126.75C40.725 129.6 40.8 134.325 37.875 137.25L34.95 140.175Z" fill="#E0A12E"/>
<path d="M225 213.75H78.75C60.1104 213.75 45 198.64 45 180C45 165.29 54.4105 152.778 67.5397 148.156C67.5133 147.524 67.5 146.889 67.5 146.25C67.5 121.397 87.6472 101.25 112.5 101.25C113.276 101.25 114.047 101.27 114.813 101.308C122.139 75.3079 146.031 56.25 174.375 56.25C208.548 56.25 236.25 83.9524 236.25 118.125C236.25 120.473 236.119 122.79 235.865 125.07C255.469 129.93 270 147.643 270 168.75C270 193.603 249.853 213.75 225 213.75Z" fill="#E0A12E"/>
<path d="M83.4141 225C80.5556 225 77.9425 226.615 76.6641 229.172L61.7109 259.078C59.2019 264.096 62.8508 270 68.4609 270C71.3194 270 73.9325 268.385 75.2109 265.828L90.1641 235.922C92.673 230.904 89.0242 225 83.4141 225Z" fill="#E0A12E"/>
<path d="M117.164 225C114.306 225 111.692 226.615 110.414 229.172L95.4609 259.078C92.9519 264.096 96.6008 270 102.211 270C105.069 270 107.683 268.385 108.961 265.828L123.914 235.922C126.423 230.904 122.774 225 117.164 225Z" fill="#E0A12E"/>
<path d="M184.664 225C190.274 225 193.923 230.904 191.414 235.922L176.461 265.828C175.183 268.385 172.569 270 169.711 270C164.101 270 160.452 264.096 162.961 259.078L177.914 229.172C179.192 226.615 181.806 225 184.664 225Z" fill="#E0A12E"/>
<path d="M218.414 225C215.556 225 212.942 226.615 211.664 229.172L196.711 259.078C194.202 264.096 197.851 270 203.461 270C206.319 270 208.933 268.385 210.211 265.828L225.164 235.922C227.673 230.904 224.024 225 218.414 225Z" fill="#E0A12E"/>
<path d="M150.914 225C156.524 225 160.173 230.904 157.664 235.922L142.711 265.828C141.433 268.385 138.819 270 135.961 270C130.351 270 126.702 264.096 129.211 259.078L144.164 229.172C145.442 226.615 148.056 225 150.914 225Z" fill="#E0A12E"/>
</g>
<defs>
<clipPath id="clip0_1_1012">
<rect width="270" height="270" fill="white"/>
</clipPath>
</defs>
</svg>
